# xmcd
#
# Track frame offsets: 
#        182
#        12562
#        24382
#        34140
#        46110
#        58077
#        70307
#        85345
#        94120
#        105332
#        115570
#        126107
#        136682
#        147782
#        157382
#        169157
#        183032
#        196570
#        205832
#        217832
#        224890
#        230470
#        232942
#        243145
#        254620
#        260545
#        265682
#        276932
#        288332
#        298945
#
# Disc length: 4031 seconds
#
# Revision: 0
# Processed by: cddbd v1.5.2PL0 Copyright (c) Steve Scherf et al.
# Submitted via: ExactAudioCopy v0.99pb4
#
DISCID=b40fbd1e
DTITLE=Kid Thomas - Wail, Baby, Wail!
DYEAR=1993
DGENRE=Blues
TTITLE0=01. Beaulah Come Back
TTITLE1=02. The Wolf Pack
TTITLE2=03. The Spell
TTITLE3=04. Come Here Woman
TTITLE4=05. Jivin' Mess
TTITLE5=06. She's Fine
TTITLE6=07. Here's My Story
TTITLE7=08. Rockin' This Joint Tonight
TTITLE8=09. You Are An Angel
TTITLE9=10. Wail Baby Wail
TTITLE10=11. Five Long Years
TTITLE11=12. Lookie There
TTITLE12=13. Cozy Lounge Blues
TTITLE13=14. Willowbrook
TTITLE14=15. You Are An Angel (version 2)
TTITLE15=16. The Hurt Is On
TTITLE16=17. I Love You So
TTITLE17=18. The Spell (alternate take )
TTITLE18=19. The Wolf Pack (alternate take 1)
TTITLE19=20. The Wolf Pack (alternate take 2)
TTITLE20=21. The Wolf Pack (alternate take 3)
TTITLE21=22. Beaulah Come Back (alternate take 1)
TTITLE22=23. Beaulah Come Back (alternate take 2)
TTITLE23=24. Beaulah Come Back (alternate take 3)
TTITLE24=25. Come Here Woman (alternate take)
TTITLE25=26. Beaulah Come Back (alternate take 4)
TTITLE26=27. I've Been Crying
TTITLE27=28. Ninety Nine and Half
TTITLE28=29. Here Comes The Night
TTITLE29=30. Dogging Around
EXTD=
EXTT0=
EXTT1=
EXTT2=
EXTT3=
EXTT4=
EXTT5=
EXTT6=
EXTT7=
EXTT8=
EXTT9=
EXTT10=
EXTT11=
EXTT12=
EXTT13=
EXTT14=
EXTT15=
EXTT16=
EXTT17=
EXTT18=
EXTT19=
EXTT20=
EXTT21=
EXTT22=
EXTT23=
EXTT24=
EXTT25=
EXTT26=
EXTT27=
EXTT28=
EXTT29=
PLAYORDER=
